<svg version="1.1" id="Layer_1" xmlns="http://www.w3.org/2000/svg" xmlns:xlink="http://www.w3.org/1999/xlink" x="0px" y="0px"
	 width="100%" viewBox="0 0 1024 1024" enable-background="new 0 0 1024 1024" xml:space="preserve">
<path fill="#000000" opacity="1.000000" stroke="none" 
	d="
M531.524170,527.005493 
	C503.410858,527.185913 475.749023,527.289551 448.087158,527.375732 
	C440.188019,527.400330 440.015289,527.381470 440.214264,535.169373 
	C440.570618,549.117188 439.013824,563.155334 442.247711,576.977905 
	C444.054077,584.698853 446.783478,592.054871 451.740784,598.241211 
	C455.295441,602.677124 457.257355,607.353333 458.078705,612.986511 
	C460.788422,631.570312 469.901550,646.709290 483.988739,658.966492 
	C484.741608,659.621521 485.494049,660.282349 486.184326,661.000427 
	C486.367859,661.191406 486.319611,661.605225 486.413544,662.108459 
	C484.207825,663.137756 482.245636,661.891724 480.309814,661.317810 
	C439.429443,649.198853 413.248627,622.964844 404.164551,580.896423 
	C395.226929,539.506226 419.946960,499.606995 459.849579,490.317383 
	C464.235626,489.296265 468.719086,488.931335 473.231110,488.931671 
	C489.563751,488.932922 505.896606,488.952454 522.229004,488.887024 
	C546.986328,488.787872 565.086975,471.516357 566.127747,445.281860 
	C567.133545,419.928284 548.302002,402.018250 528.077393,399.106964 
	C521.249634,398.124084 514.440979,398.476135 507.624939,398.443909 
	C487.126190,398.346985 466.626678,398.377319 446.127563,398.403442 
	C439.663544,398.411682 439.339874,398.769592 439.335815,405.189911 
	C439.320740,429.022278 439.238281,452.855316 439.414398,476.686371 
	C439.444275,480.724884 438.197723,482.947754 434.549164,484.819092 
	C422.155792,491.175629 412.017700,500.142578 404.752197,512.173828 
	C404.103607,513.247864 403.794250,514.733154 402.148346,514.980347 
	C400.451080,513.762695 401.097595,511.940460 401.096191,510.384827 
	C401.053406,462.887146 401.044373,415.389435 401.059662,367.891724 
	C401.061981,360.679199 401.128815,360.669006 408.216187,360.668274 
	C446.714661,360.664276 485.213226,360.612610 523.711609,360.680206 
	C562.724915,360.748718 597.908691,393.046143 603.569214,431.558411 
	C609.835449,474.191589 581.519287,520.633545 531.524170,527.005493 
z"/>
<path fill="#000000" opacity="1.000000" stroke="none" 
	d="
M502.659302,657.468750 
	C487.239502,648.163208 476.841339,635.498230 471.781555,617.005798 
	C479.402466,620.973633 485.979828,623.987976 493.085815,625.686157 
	C500.812408,627.532654 508.646149,627.004395 516.452576,627.097839 
	C523.445923,627.181519 530.441772,627.130554 537.435852,627.068970 
	C562.394470,626.849121 582.578491,608.842896 585.816589,583.989929 
	C588.600525,562.623108 581.059448,545.890076 563.361450,533.675903 
	C562.541504,533.110046 561.718506,532.543335 560.947571,531.914917 
	C560.726440,531.734680 560.683044,531.336304 560.541565,530.998230 
	C560.702026,529.562988 562.026001,529.310425 562.998291,528.853088 
	C572.461670,524.402100 580.824341,518.413452 587.803833,510.646149 
	C590.585144,507.550903 592.649353,507.700867 595.603638,510.403503 
	C612.761719,526.100159 622.370239,545.745544 624.041626,568.640442 
	C626.443848,601.547180 614.828003,629.234192 587.852783,648.602295 
	C561.741028,667.350586 533.073792,671.559326 502.659302,657.468750 
z"/>
</svg>